<svg height="512pt" viewBox="0 -1 512.00038 512" width="512pt" xmlns="http://www.w3.org/2000/svg" xmlns:xlink="http://www.w3.org/1999/xlink"><linearGradient id="a" gradientUnits="userSpaceOnUse" x1=".000383" x2="512.000383" y1="255.00019" y2="255.00019"><stop offset="0" stop-color="#ED5560"/><stop offset="1" stop-color="#87AEB4"/></linearGradient><path d="m208.128906 0h-188.109375c-11.042969 0-19.9960935 8.953125-19.9960935 20v188.0625c0 11.046875 8.9531245 20 19.9960935 20h188.109375c11.042969 0 19.996094-8.957031 19.996094-20v-188.0625c.003906-11.046875-8.953125-20-19.996094-20zm-20 188.0625h-148.109375v-148.0625h148.109375zm20 93.863281h-188.109375c-17.757812 0-26.726562 21.554688-14.136719 34.140625l188.105469 188.0625c12.515625 12.511719 34.140625 3.730469 34.140625-14.140625v-188.066406c0-11.042969-8.957031-19.996094-20-19.996094zm-20 159.785157-119.816406-119.789063h119.816406zm303.871094-441.710938h-188.105469c-11.042969 0-20 8.953125-20 20v188.0625c0 11.046875 8.957031 20 20 20h188.105469c11.046875 0 20-8.957031 20-20v-188.0625c0-11.046875-8.953125-20-20-20zm-19.996094 188.0625h-148.109375v-148.0625h148.109375zm19.996094 93.863281h-188.105469c-11.042969 0-20 8.953125-20 19.996094v188.0625c0 11.046875 8.957031 20 20 20h188.105469c11.046875 0 20-8.953125 20-20v-188.0625c0-11.042969-8.953125-19.996094-20-19.996094zm-19.996094 188.0625h-148.109375v-148.066406h148.109375zm0 0" fill="url(#a)"/></svg>